<svg width="106" height="48" viewBox="0 0 106 48" fill="none" xmlns="http://www.w3.org/2000/svg">
<path d="M16.0156 15.75C16.0807 18.6146 16.1296 21.1211 16.1621 23.2695C16.1947 25.418 16.2272 27.2246 16.2598 28.6895C16.2923 30.4147 16.3086 31.8958 16.3086 33.1328C16.3411 34.6628 16.2109 36.2415 15.918 37.8691C15.6576 39.5293 15.2181 41.043 14.5996 42.4102C13.9811 43.7773 13.1673 44.9004 12.1582 45.7793C11.1491 46.6582 9.92839 47.0977 8.49609 47.0977C6.77083 47.0977 5.45247 46.7396 4.54102 46.0234C3.62956 45.3398 2.96224 44.5586 2.53906 43.6797C2.11589 42.8008 1.87174 41.9707 1.80664 41.1895C1.74154 40.4408 1.70898 40.0013 1.70898 39.8711C1.70898 39.6107 1.87174 39.3177 2.19727 38.9922C2.52279 38.6667 3.01107 38.3737 3.66211 38.1133C3.92253 38.0156 4.18294 37.9342 4.44336 37.8691C4.67122 37.804 4.89909 37.7552 5.12695 37.7227C5.35482 37.6901 5.56641 37.7064 5.76172 37.7715C5.4362 38.3574 5.24089 39.0247 5.17578 39.7734C5.14323 40.5221 5.24089 41.222 5.46875 41.873C5.72917 42.5566 6.10352 43.1263 6.5918 43.582C7.08008 44.0378 7.69857 44.2656 8.44727 44.2656C9.48893 44.2656 10.3027 43.9564 10.8887 43.3379C11.5072 42.752 11.9629 42.0195 12.2559 41.1406C12.5814 40.2617 12.7767 39.334 12.8418 38.3574C12.9395 37.3809 12.9883 36.5182 12.9883 35.7695C12.9883 35.1836 12.972 34.4349 12.9395 33.5234C12.9395 32.5794 12.8906 31.5378 12.793 30.3984C12.4023 31.0495 11.9466 31.6842 11.4258 32.3027C10.9049 32.8887 10.3516 33.4095 9.76562 33.8652C9.17969 34.321 8.57747 34.679 7.95898 34.9395C7.37305 35.2324 6.78711 35.3789 6.20117 35.3789C5.19206 35.3789 4.37826 35.0697 3.75977 34.4512C3.14128 33.8001 2.66927 33.0026 2.34375 32.0586C2.01823 31.082 1.79036 30.0404 1.66016 28.9336C1.5625 27.7943 1.51367 26.7526 1.51367 25.8086C1.51367 25.0924 1.54622 24.2298 1.61133 23.2207C1.67643 22.179 1.75781 21.1862 1.85547 20.2422C1.95312 19.2982 2.06706 18.4844 2.19727 17.8008C2.36003 17.0846 2.52279 16.6777 2.68555 16.5801C3.62956 16.0267 4.55729 15.7174 5.46875 15.6523C6.38021 15.5872 7.0638 15.7012 7.51953 15.9941C7.12891 16.2871 6.80339 16.7754 6.54297 17.459C6.28255 18.1426 6.07096 18.9076 5.9082 19.7539C5.74544 20.5677 5.63151 21.4303 5.56641 22.3418C5.5013 23.2207 5.46875 24.0182 5.46875 24.7344C5.46875 25.3203 5.48503 26.0202 5.51758 26.834C5.55013 27.6478 5.61523 28.429 5.71289 29.1777C5.8431 29.9264 6.02214 30.5612 6.25 31.082C6.47786 31.6029 6.77083 31.8633 7.12891 31.8633C7.84505 31.8633 8.51237 31.6029 9.13086 31.082C9.74935 30.5612 10.2865 29.9102 10.7422 29.1289C11.2305 28.3477 11.6048 27.5176 11.8652 26.6387C12.1257 25.7272 12.2559 24.8809 12.2559 24.0996V23.709C12.1908 22.8626 12.1257 22.0651 12.0605 21.3164C11.9954 20.5352 11.9303 19.8353 11.8652 19.2168C11.8327 18.5983 11.8001 18.0938 11.7676 17.7031C11.7676 17.2799 11.7676 17.0033 11.7676 16.873C11.7676 16.5475 11.9792 16.2546 12.4023 15.9941C12.8581 15.7337 13.3464 15.5547 13.8672 15.457C14.4206 15.3268 14.9089 15.278 15.332 15.3105C15.7878 15.3431 16.0156 15.4896 16.0156 15.75ZM20.166 17.2148C20.166 17.0195 20.4264 16.8079 20.9473 16.5801C21.4681 16.3522 22.0378 16.1732 22.6562 16.043C23.3073 15.8802 23.8932 15.7988 24.4141 15.7988C24.9674 15.7663 25.2441 15.8802 25.2441 16.1406C25.2441 16.6289 25.2116 17.3288 25.1465 18.2402C25.0814 19.1191 25 20.0632 24.9023 21.0723C24.8047 22.0488 24.707 23.0417 24.6094 24.0508C24.5117 25.0273 24.4466 25.8574 24.4141 26.541C24.349 27.2572 24.2839 28.0384 24.2188 28.8848C24.1536 29.6009 24.1048 30.3984 24.0723 31.2773C24.0397 32.1562 24.0397 33.0514 24.0723 33.9629C24.0723 34.1257 23.9095 34.2884 23.584 34.4512C23.2585 34.6139 22.9004 34.7279 22.5098 34.793C22.1191 34.8906 21.7448 34.9395 21.3867 34.9395C21.0286 34.9395 20.8333 34.8743 20.8008 34.7441C20.7357 34.6139 20.6706 34.3861 20.6055 34.0605C20.5404 33.735 20.4753 33.2793 20.4102 32.6934C20.3451 32.0749 20.2962 31.2936 20.2637 30.3496C20.2311 29.373 20.2474 28.2012 20.3125 26.834C20.4427 24.1322 20.459 22.0488 20.3613 20.584C20.2637 19.0866 20.1986 17.9635 20.166 17.2148ZM23.584 7.49805C24.235 7.49805 24.8535 7.69336 25.4395 8.08398C26.0254 8.47461 26.3184 8.99544 26.3184 9.64648C26.3184 10.1348 26.1882 10.6068 25.9277 11.0625C25.6999 11.5182 25.4069 11.9251 25.0488 12.2832C24.6908 12.6413 24.2839 12.9342 23.8281 13.1621C23.3724 13.3574 22.9492 13.4551 22.5586 13.4551C22.0378 13.4551 21.6146 13.3737 21.2891 13.2109C20.9635 13.0156 20.7031 12.804 20.5078 12.5762C20.3451 12.3158 20.2311 12.0391 20.166 11.7461C20.1009 11.4531 20.0684 11.1764 20.0684 10.916C20.0684 10.5905 20.1172 10.2324 20.2148 9.8418C20.3125 9.41862 20.4915 9.04427 20.752 8.71875C21.0124 8.36068 21.3704 8.06771 21.8262 7.83984C22.2819 7.61198 22.8678 7.49805 23.584 7.49805ZM22.3633 12.0391C22.5586 12.0391 22.7702 11.974 22.998 11.8438C23.2585 11.681 23.4863 11.502 23.6816 11.3066C23.9095 11.1113 24.0885 10.8997 24.2188 10.6719C24.3815 10.444 24.4629 10.2487 24.4629 10.0859C24.4629 9.82552 24.3327 9.69531 24.0723 9.69531C23.9095 9.69531 23.6979 9.76042 23.4375 9.89062C23.2096 10.0208 22.9818 10.1836 22.7539 10.3789C22.526 10.5417 22.3307 10.737 22.168 10.9648C22.0378 11.1602 21.9727 11.3555 21.9727 11.5508C21.9727 11.8763 22.1029 12.0391 22.3633 12.0391ZM33.6914 33.1816C33.6589 33.377 33.4798 33.5885 33.1543 33.8164C32.8613 34.0117 32.5033 34.1908 32.0801 34.3535C31.6895 34.5163 31.3151 34.6139 30.957 34.6465C30.599 34.7116 30.3548 34.679 30.2246 34.5488C30.0944 34.4186 29.8828 34.1745 29.5898 33.8164C29.2969 33.4583 29.1178 32.8724 29.0527 32.0586C28.9876 31.2122 28.9551 30.1543 28.9551 28.8848C28.9551 27.5827 28.9388 26.1504 28.9062 24.5879V22.6348C28.9062 22.0488 28.89 21.3652 28.8574 20.584C28.8574 19.8027 28.8411 18.9889 28.8086 18.1426C29.1016 17.9798 29.3945 17.8333 29.6875 17.7031C30.013 17.5404 30.306 17.4102 30.5664 17.3125C30.8594 17.1823 31.1361 17.0846 31.3965 17.0195C32.0801 16.8242 32.6009 16.7103 32.959 16.6777C33.3171 16.6452 33.5286 16.7591 33.5938 17.0195C33.6263 17.2148 33.61 17.6868 33.5449 18.4355C33.4798 19.0866 33.3984 20.0794 33.3008 21.4141C33.2031 22.7161 33.0404 24.5391 32.8125 26.8828C33.2357 25.8411 33.5775 24.946 33.8379 24.1973C34.1309 23.4486 34.375 22.8464 34.5703 22.3906C34.7656 21.8372 34.9447 21.3978 35.1074 21.0723C35.2702 20.6491 35.4818 20.1771 35.7422 19.6562C36.0026 19.1354 36.263 18.6471 36.5234 18.1914C36.8164 17.7357 37.0768 17.3288 37.3047 16.9707C37.5651 16.6126 37.7604 16.401 37.8906 16.3359C37.9883 16.2708 38.2812 16.2708 38.7695 16.3359C39.2578 16.401 39.7786 16.5638 40.332 16.8242C40.8854 17.0521 41.4225 17.3939 41.9434 17.8496C42.4642 18.2728 42.806 18.7936 42.9688 19.4121C43.1641 20.1283 43.2292 21.0723 43.1641 22.2441C43.1315 23.416 43.0501 24.6204 42.9199 25.8574C42.8223 27.0944 42.7409 28.2663 42.6758 29.373C42.6107 30.4798 42.6758 31.3262 42.8711 31.9121C42.9362 32.2376 43.0339 32.5306 43.1641 32.791C43.2292 33.0514 43.3105 33.2956 43.4082 33.5234C43.5384 33.7188 43.6686 33.8652 43.7988 33.9629C43.0176 34.321 42.3828 34.5814 41.8945 34.7441C41.4062 34.9069 41.0319 35.0208 40.7715 35.0859C40.446 35.1836 40.2181 35.2161 40.0879 35.1836C39.7949 35.0859 39.5345 34.8418 39.3066 34.4512C39.1113 34.0605 38.9323 33.4421 38.7695 32.5957C38.7044 32.3353 38.6719 31.9121 38.6719 31.3262C38.7044 30.7077 38.7533 30.0241 38.8184 29.2754C38.8835 28.4941 38.9486 27.6966 39.0137 26.8828C39.1113 26.0365 39.1764 25.2552 39.209 24.5391C39.2741 23.7904 39.3229 23.1556 39.3555 22.6348C39.388 22.0814 39.388 21.707 39.3555 21.5117C39.1927 20.9258 38.9648 20.5189 38.6719 20.291C38.3789 20.0306 38.151 19.998 37.9883 20.1934C37.5651 20.6816 37.1094 21.4792 36.6211 22.5859C36.1654 23.6602 35.7259 24.8483 35.3027 26.1504C34.8796 27.4199 34.5215 28.6895 34.2285 29.959C33.9355 31.2285 33.7565 32.3027 33.6914 33.1816ZM62.5 3.49414C62.5 3.85221 62.4674 4.55208 62.4023 5.59375C62.3372 6.63542 62.2559 7.88867 62.1582 9.35352C62.0605 10.8184 61.9629 12.4297 61.8652 14.1875C61.7676 15.9453 61.6862 17.7357 61.6211 19.5586C61.556 21.3815 61.4909 23.0905 61.4258 24.6855C61.3932 26.248 61.377 27.6478 61.377 28.8848C61.4095 30.1217 61.4746 31.1634 61.5723 32.0098C61.6699 32.8236 61.8164 33.377 62.0117 33.6699L59.8145 34.5C59.6517 34.5651 59.4564 34.5977 59.2285 34.5977C59.0007 34.5977 58.7565 34.5326 58.4961 34.4023C58.2682 34.2721 58.0729 34.0443 57.9102 33.7188C57.7474 33.3932 57.666 32.9375 57.666 32.3516C57.666 32.1237 57.666 31.847 57.666 31.5215C57.6986 31.1634 57.7148 30.7565 57.7148 30.3008C57.3242 30.9518 56.901 31.5866 56.4453 32.2051C55.9896 32.8236 55.485 33.3607 54.9316 33.8164C54.4108 34.2721 53.8411 34.6302 53.2227 34.8906C52.6042 35.1836 51.9531 35.3301 51.2695 35.3301C50.6185 35.3301 49.9837 35.1836 49.3652 34.8906C48.7467 34.6302 48.1934 34.2233 47.7051 33.6699C47.2168 33.1165 46.8099 32.4004 46.4844 31.5215C46.1914 30.6426 46.0449 29.5846 46.0449 28.3477C46.0449 26.1016 46.3053 24.1484 46.8262 22.4883C47.347 20.7956 47.998 19.3958 48.7793 18.2891C49.5931 17.1497 50.4557 16.3034 51.3672 15.75C52.3112 15.1641 53.1738 14.8711 53.9551 14.8711C55.1595 14.8711 56.0872 15.1966 56.7383 15.8477C57.3893 16.4661 57.8613 17.1172 58.1543 17.8008C58.1868 16.8568 58.2031 15.9779 58.2031 15.1641C58.2357 14.3177 58.252 13.6016 58.252 13.0156C58.252 10.6068 58.2031 8.45833 58.1055 6.57031C58.0078 4.68229 57.7637 3.25 57.373 2.27344C57.8288 2.01302 58.2357 1.81771 58.5938 1.6875C58.9844 1.55729 59.3262 1.45964 59.6191 1.39453C59.9772 1.29688 60.2865 1.24805 60.5469 1.24805C61.263 1.24805 61.7676 1.45964 62.0605 1.88281C62.3535 2.27344 62.5 2.81055 62.5 3.49414ZM57.8613 26.1504C57.9264 25.304 57.959 24.4251 57.959 23.5137C57.9915 22.5697 58.0241 21.6257 58.0566 20.6816C57.8288 21.0397 57.5521 21.349 57.2266 21.6094C56.9336 21.8698 56.6081 21.9349 56.25 21.8047C56.3802 20.8281 56.3639 20.0794 56.2012 19.5586C56.071 19.0378 55.8757 18.6471 55.6152 18.3867C55.3223 18.0938 54.9805 17.931 54.5898 17.8984C54.0039 17.8984 53.418 18.224 52.832 18.875C52.2786 19.526 51.7741 20.3398 51.3184 21.3164C50.8952 22.2604 50.5534 23.2858 50.293 24.3926C50.0326 25.4668 49.9023 26.4596 49.9023 27.3711C49.9023 29.194 50.1465 30.4635 50.6348 31.1797C51.1556 31.8958 51.709 32.2539 52.2949 32.2539C52.7832 32.2539 53.2878 32.0586 53.8086 31.668C54.362 31.2773 54.8828 30.7728 55.3711 30.1543C55.8919 29.5358 56.3639 28.8848 56.7871 28.2012C57.2428 27.485 57.6009 26.8014 57.8613 26.1504ZM65.625 17.2148C65.625 17.0195 65.8854 16.8079 66.4062 16.5801C66.9271 16.3522 67.4967 16.1732 68.1152 16.043C68.7663 15.8802 69.3522 15.7988 69.873 15.7988C70.4264 15.7663 70.7031 15.8802 70.7031 16.1406C70.7031 16.6289 70.6706 17.3288 70.6055 18.2402C70.5404 19.1191 70.459 20.0632 70.3613 21.0723C70.2637 22.0488 70.166 23.0417 70.0684 24.0508C69.9707 25.0273 69.9056 25.8574 69.873 26.541C69.8079 27.2572 69.7428 28.0384 69.6777 28.8848C69.6126 29.6009 69.5638 30.3984 69.5312 31.2773C69.4987 32.1562 69.4987 33.0514 69.5312 33.9629C69.5312 34.1257 69.3685 34.2884 69.043 34.4512C68.7174 34.6139 68.3594 34.7279 67.9688 34.793C67.5781 34.8906 67.2038 34.9395 66.8457 34.9395C66.4876 34.9395 66.2923 34.8743 66.2598 34.7441C66.1947 34.6139 66.1296 34.3861 66.0645 34.0605C65.9993 33.735 65.9342 33.2793 65.8691 32.6934C65.804 32.0749 65.7552 31.2936 65.7227 30.3496C65.6901 29.373 65.7064 28.2012 65.7715 26.834C65.9017 24.1322 65.918 22.0488 65.8203 20.584C65.7227 19.0866 65.6576 17.9635 65.625 17.2148ZM69.043 7.49805C69.694 7.49805 70.3125 7.69336 70.8984 8.08398C71.4844 8.47461 71.7773 8.99544 71.7773 9.64648C71.7773 10.1348 71.6471 10.6068 71.3867 11.0625C71.1589 11.5182 70.8659 11.9251 70.5078 12.2832C70.1497 12.6413 69.7428 12.9342 69.2871 13.1621C68.8314 13.3574 68.4082 13.4551 68.0176 13.4551C67.4967 13.4551 67.0736 13.3737 66.748 13.2109C66.4225 13.0156 66.1621 12.804 65.9668 12.5762C65.804 12.3158 65.6901 12.0391 65.625 11.7461C65.5599 11.4531 65.5273 11.1764 65.5273 10.916C65.5273 10.5905 65.5762 10.2324 65.6738 9.8418C65.7715 9.41862 65.9505 9.04427 66.2109 8.71875C66.4714 8.36068 66.8294 8.06771 67.2852 7.83984C67.7409 7.61198 68.3268 7.49805 69.043 7.49805ZM67.8223 12.0391C68.0176 12.0391 68.2292 11.974 68.457 11.8438C68.7174 11.681 68.9453 11.502 69.1406 11.3066C69.3685 11.1113 69.5475 10.8997 69.6777 10.6719C69.8405 10.444 69.9219 10.2487 69.9219 10.0859C69.9219 9.82552 69.7917 9.69531 69.5312 9.69531C69.3685 9.69531 69.1569 9.76042 68.8965 9.89062C68.6686 10.0208 68.4408 10.1836 68.2129 10.3789C67.985 10.5417 67.7897 10.737 67.627 10.9648C67.4967 11.1602 67.4316 11.3555 67.4316 11.5508C67.4316 11.8763 67.5618 12.0391 67.8223 12.0391ZM87.3047 19.5098C87.3047 19.9655 87.1745 20.4375 86.9141 20.9258C86.6862 21.3815 86.3932 21.821 86.0352 22.2441C85.6771 22.6673 85.2702 23.0417 84.8145 23.3672C84.3913 23.6602 83.9844 23.8392 83.5938 23.9043C83.8542 22.8952 83.9355 22.1139 83.8379 21.5605C83.7402 21.0072 83.5775 20.6003 83.3496 20.3398C83.0892 20.0469 82.7637 19.8841 82.373 19.8516C81.7871 19.8516 81.2174 20.1934 80.6641 20.877C80.1432 21.528 79.6875 22.3418 79.2969 23.3184C78.9062 24.2624 78.597 25.2878 78.3691 26.3945C78.1413 27.4688 78.0273 28.4453 78.0273 29.3242C77.9948 29.9427 78.0111 30.5449 78.0762 31.1309C78.1087 31.6191 78.1576 32.1237 78.2227 32.6445C78.3203 33.1654 78.4505 33.5723 78.6133 33.8652C78.418 34.028 78.0924 34.2233 77.6367 34.4512C77.2135 34.679 76.7578 34.8255 76.2695 34.8906C75.8138 34.9557 75.3906 34.8743 75 34.6465C74.6419 34.4186 74.4466 33.9303 74.4141 33.1816C74.349 32.4655 74.3001 31.668 74.2676 30.7891C74.2676 29.8776 74.2676 28.9824 74.2676 28.1035C74.3001 27.1921 74.3327 26.2969 74.3652 25.418C74.3978 24.5391 74.4466 23.7253 74.5117 22.9766C74.5768 21.5443 74.6094 20.4375 74.6094 19.6562C74.6094 18.875 74.5931 18.1263 74.5605 17.4102C74.5605 17.2799 74.7721 17.1009 75.1953 16.873C75.651 16.6126 76.1393 16.3848 76.6602 16.1895C77.2135 15.9941 77.7181 15.8802 78.1738 15.8477C78.6296 15.8151 78.8574 15.9128 78.8574 16.1406C78.8574 16.4987 78.8086 17.2148 78.7109 18.2891C78.6458 19.3307 78.5482 20.4212 78.418 21.5605C78.6458 20.9421 78.9388 20.2747 79.2969 19.5586C79.6875 18.8424 80.127 18.1751 80.6152 17.5566C81.1035 16.9382 81.6569 16.4336 82.2754 16.043C82.8939 15.6198 83.5775 15.4082 84.3262 15.4082C84.9121 15.4082 85.3841 15.5872 85.7422 15.9453C86.1328 16.3034 86.4421 16.7103 86.6699 17.166C86.8978 17.6217 87.0605 18.0775 87.1582 18.5332C87.2559 18.9889 87.3047 19.3145 87.3047 19.5098ZM102.979 32.0098C103.044 32.2376 103.141 32.4492 103.271 32.6445C103.369 32.8073 103.499 32.9701 103.662 33.1328C103.857 33.263 104.085 33.3444 104.346 33.377C104.118 33.8327 103.89 34.1419 103.662 34.3047C103.532 34.4023 103.418 34.4674 103.32 34.5C103.027 34.5977 102.588 34.6465 102.002 34.6465C101.416 34.6465 100.846 34.4674 100.293 34.1094C100.098 33.9466 99.9186 33.7025 99.7559 33.377C99.5931 33.1165 99.4466 32.7585 99.3164 32.3027C99.2188 31.8145 99.1374 31.196 99.0723 30.4473C98.6165 31.4238 98.0957 32.2051 97.5098 32.791C96.9564 33.3444 96.403 33.7513 95.8496 34.0117C95.2311 34.3698 94.5964 34.5814 93.9453 34.6465C93.1315 34.7116 92.3503 34.5814 91.6016 34.2559C90.8854 33.8978 90.2669 33.377 89.7461 32.6934C89.2578 31.9772 88.8835 31.1146 88.623 30.1055C88.3626 29.0964 88.2812 27.957 88.3789 26.6875C88.4766 25.3529 88.737 24.1647 89.1602 23.123C89.5833 22.0814 90.0879 21.1536 90.6738 20.3398C91.2598 19.526 91.8783 18.8424 92.5293 18.2891C93.1803 17.7031 93.7988 17.2311 94.3848 16.873C95.0033 16.4824 95.5241 16.2057 95.9473 16.043C96.403 15.8477 96.696 15.7337 96.8262 15.7012C97.1842 15.6035 97.4935 15.571 97.7539 15.6035C98.0143 15.6361 98.2422 15.7826 98.4375 16.043C98.5026 16.1406 98.584 16.2546 98.6816 16.3848C98.7467 16.515 98.8281 16.694 98.9258 16.9219C99.0234 17.1172 99.1048 17.3451 99.1699 17.6055C98.3887 17.9635 97.6562 18.3704 96.9727 18.8262C96.2891 19.2493 95.6543 19.7702 95.0684 20.3887C94.515 21.0072 94.0267 21.7559 93.6035 22.6348C93.1803 23.5137 92.8548 24.5879 92.627 25.8574C92.3014 27.4525 92.3828 28.7383 92.8711 29.7148C93.3919 30.6914 94.0918 31.0983 94.9707 30.9355C95.4915 30.7728 95.9961 30.4635 96.4844 30.0078C96.9076 29.6172 97.347 29.0312 97.8027 28.25C98.291 27.4688 98.7467 26.3945 99.1699 25.0273C99.3327 23.0742 99.4629 21.5443 99.5605 20.4375C99.6908 19.2982 99.8047 18.4355 99.9023 17.8496C100.033 17.166 100.13 16.7103 100.195 16.4824C100.293 16.3197 100.488 16.1732 100.781 16.043C101.074 15.8802 101.4 15.75 101.758 15.6523C102.116 15.5547 102.441 15.5059 102.734 15.5059C103.027 15.4733 103.223 15.4733 103.32 15.5059C103.385 15.5384 103.418 15.9453 103.418 16.7266C103.418 17.4753 103.385 18.4355 103.32 19.6074C103.288 20.7467 103.239 22 103.174 23.3672C103.109 24.7018 103.044 25.9714 102.979 27.1758C102.946 28.3802 102.913 29.4382 102.881 30.3496C102.881 31.2285 102.913 31.7819 102.979 32.0098Z" fill="#012850"/>
</svg>
