<svg width="104" height="47" viewBox="0 0 104 47" fill="none" xmlns="http://www.w3.org/2000/svg">
<path d="M15.0156 15.25C15.0807 18.1146 15.1296 20.6211 15.1621 22.7695C15.1947 24.918 15.2272 26.7246 15.2598 28.1895C15.2923 29.9147 15.3086 31.3958 15.3086 32.6328C15.3411 34.1628 15.2109 35.7415 14.918 37.3691C14.6576 39.0293 14.2181 40.543 13.5996 41.9102C12.9811 43.2773 12.1673 44.4004 11.1582 45.2793C10.1491 46.1582 8.92839 46.5977 7.49609 46.5977C5.77083 46.5977 4.45247 46.2396 3.54102 45.5234C2.62956 44.8398 1.96224 44.0586 1.53906 43.1797C1.11589 42.3008 0.871745 41.4707 0.806641 40.6895C0.741536 39.9408 0.708984 39.5013 0.708984 39.3711C0.708984 39.1107 0.871745 38.8177 1.19727 38.4922C1.52279 38.1667 2.01107 37.8737 2.66211 37.6133C2.92253 37.5156 3.18294 37.4342 3.44336 37.3691C3.67122 37.304 3.89909 37.2552 4.12695 37.2227C4.35482 37.1901 4.56641 37.2064 4.76172 37.2715C4.4362 37.8574 4.24089 38.5247 4.17578 39.2734C4.14323 40.0221 4.24089 40.722 4.46875 41.373C4.72917 42.0566 5.10352 42.6263 5.5918 43.082C6.08008 43.5378 6.69857 43.7656 7.44727 43.7656C8.48893 43.7656 9.30273 43.4564 9.88867 42.8379C10.5072 42.252 10.9629 41.5195 11.2559 40.6406C11.5814 39.7617 11.7767 38.834 11.8418 37.8574C11.9395 36.8809 11.9883 36.0182 11.9883 35.2695C11.9883 34.6836 11.972 33.9349 11.9395 33.0234C11.9395 32.0794 11.8906 31.0378 11.793 29.8984C11.4023 30.5495 10.9466 31.1842 10.4258 31.8027C9.90495 32.3887 9.35156 32.9095 8.76562 33.3652C8.17969 33.821 7.57747 34.179 6.95898 34.4395C6.37305 34.7324 5.78711 34.8789 5.20117 34.8789C4.19206 34.8789 3.37826 34.5697 2.75977 33.9512C2.14128 33.3001 1.66927 32.5026 1.34375 31.5586C1.01823 30.582 0.790365 29.5404 0.660156 28.4336C0.5625 27.2943 0.513672 26.2526 0.513672 25.3086C0.513672 24.5924 0.546224 23.7298 0.611328 22.7207C0.676432 21.679 0.757812 20.6862 0.855469 19.7422C0.953125 18.7982 1.06706 17.9844 1.19727 17.3008C1.36003 16.5846 1.52279 16.1777 1.68555 16.0801C2.62956 15.5267 3.55729 15.2174 4.46875 15.1523C5.38021 15.0872 6.0638 15.2012 6.51953 15.4941C6.12891 15.7871 5.80339 16.2754 5.54297 16.959C5.28255 17.6426 5.07096 18.4076 4.9082 19.2539C4.74544 20.0677 4.63151 20.9303 4.56641 21.8418C4.5013 22.7207 4.46875 23.5182 4.46875 24.2344C4.46875 24.8203 4.48503 25.5202 4.51758 26.334C4.55013 27.1478 4.61523 27.929 4.71289 28.6777C4.8431 29.4264 5.02214 30.0612 5.25 30.582C5.47786 31.1029 5.77083 31.3633 6.12891 31.3633C6.84505 31.3633 7.51237 31.1029 8.13086 30.582C8.74935 30.0612 9.28646 29.4102 9.74219 28.6289C10.2305 27.8477 10.6048 27.0176 10.8652 26.1387C11.1257 25.2272 11.2559 24.3809 11.2559 23.5996V23.209C11.1908 22.3626 11.1257 21.5651 11.0605 20.8164C10.9954 20.0352 10.9303 19.3353 10.8652 18.7168C10.8327 18.0983 10.8001 17.5938 10.7676 17.2031C10.7676 16.7799 10.7676 16.5033 10.7676 16.373C10.7676 16.0475 10.9792 15.7546 11.4023 15.4941C11.8581 15.2337 12.3464 15.0547 12.8672 14.957C13.4206 14.8268 13.9089 14.778 14.332 14.8105C14.7878 14.8431 15.0156 14.9896 15.0156 15.25ZM19.166 16.7148C19.166 16.5195 19.4264 16.3079 19.9473 16.0801C20.4681 15.8522 21.0378 15.6732 21.6562 15.543C22.3073 15.3802 22.8932 15.2988 23.4141 15.2988C23.9674 15.2663 24.2441 15.3802 24.2441 15.6406C24.2441 16.1289 24.2116 16.8288 24.1465 17.7402C24.0814 18.6191 24 19.5632 23.9023 20.5723C23.8047 21.5488 23.707 22.5417 23.6094 23.5508C23.5117 24.5273 23.4466 25.3574 23.4141 26.041C23.349 26.7572 23.2839 27.5384 23.2188 28.3848C23.1536 29.1009 23.1048 29.8984 23.0723 30.7773C23.0397 31.6562 23.0397 32.5514 23.0723 33.4629C23.0723 33.6257 22.9095 33.7884 22.584 33.9512C22.2585 34.1139 21.9004 34.2279 21.5098 34.293C21.1191 34.3906 20.7448 34.4395 20.3867 34.4395C20.0286 34.4395 19.8333 34.3743 19.8008 34.2441C19.7357 34.1139 19.6706 33.8861 19.6055 33.5605C19.5404 33.235 19.4753 32.7793 19.4102 32.1934C19.3451 31.5749 19.2962 30.7936 19.2637 29.8496C19.2311 28.873 19.2474 27.7012 19.3125 26.334C19.4427 23.6322 19.459 21.5488 19.3613 20.084C19.2637 18.5866 19.1986 17.4635 19.166 16.7148ZM22.584 6.99805C23.235 6.99805 23.8535 7.19336 24.4395 7.58398C25.0254 7.97461 25.3184 8.49544 25.3184 9.14648C25.3184 9.63477 25.1882 10.1068 24.9277 10.5625C24.6999 11.0182 24.4069 11.4251 24.0488 11.7832C23.6908 12.1413 23.2839 12.4342 22.8281 12.6621C22.3724 12.8574 21.9492 12.9551 21.5586 12.9551C21.0378 12.9551 20.6146 12.8737 20.2891 12.7109C19.9635 12.5156 19.7031 12.304 19.5078 12.0762C19.3451 11.8158 19.2311 11.5391 19.166 11.2461C19.1009 10.9531 19.0684 10.6764 19.0684 10.416C19.0684 10.0905 19.1172 9.73242 19.2148 9.3418C19.3125 8.91862 19.4915 8.54427 19.752 8.21875C20.0124 7.86068 20.3704 7.56771 20.8262 7.33984C21.2819 7.11198 21.8678 6.99805 22.584 6.99805ZM21.3633 11.5391C21.5586 11.5391 21.7702 11.474 21.998 11.3438C22.2585 11.181 22.4863 11.002 22.6816 10.8066C22.9095 10.6113 23.0885 10.3997 23.2188 10.1719C23.3815 9.94401 23.4629 9.7487 23.4629 9.58594C23.4629 9.32552 23.3327 9.19531 23.0723 9.19531C22.9095 9.19531 22.6979 9.26042 22.4375 9.39062C22.2096 9.52083 21.9818 9.68359 21.7539 9.87891C21.526 10.0417 21.3307 10.237 21.168 10.4648C21.0378 10.6602 20.9727 10.8555 20.9727 11.0508C20.9727 11.3763 21.1029 11.5391 21.3633 11.5391ZM32.6914 32.6816C32.6589 32.877 32.4798 33.0885 32.1543 33.3164C31.8613 33.5117 31.5033 33.6908 31.0801 33.8535C30.6895 34.0163 30.3151 34.1139 29.957 34.1465C29.599 34.2116 29.3548 34.179 29.2246 34.0488C29.0944 33.9186 28.8828 33.6745 28.5898 33.3164C28.2969 32.9583 28.1178 32.3724 28.0527 31.5586C27.9876 30.7122 27.9551 29.6543 27.9551 28.3848C27.9551 27.0827 27.9388 25.6504 27.9062 24.0879V22.1348C27.9062 21.5488 27.89 20.8652 27.8574 20.084C27.8574 19.3027 27.8411 18.4889 27.8086 17.6426C28.1016 17.4798 28.3945 17.3333 28.6875 17.2031C29.013 17.0404 29.306 16.9102 29.5664 16.8125C29.8594 16.6823 30.1361 16.5846 30.3965 16.5195C31.0801 16.3242 31.6009 16.2103 31.959 16.1777C32.3171 16.1452 32.5286 16.2591 32.5938 16.5195C32.6263 16.7148 32.61 17.1868 32.5449 17.9355C32.4798 18.5866 32.3984 19.5794 32.3008 20.9141C32.2031 22.2161 32.0404 24.0391 31.8125 26.3828C32.2357 25.3411 32.5775 24.446 32.8379 23.6973C33.1309 22.9486 33.375 22.3464 33.5703 21.8906C33.7656 21.3372 33.9447 20.8978 34.1074 20.5723C34.2702 20.1491 34.4818 19.6771 34.7422 19.1562C35.0026 18.6354 35.263 18.1471 35.5234 17.6914C35.8164 17.2357 36.0768 16.8288 36.3047 16.4707C36.5651 16.1126 36.7604 15.901 36.8906 15.8359C36.9883 15.7708 37.2812 15.7708 37.7695 15.8359C38.2578 15.901 38.7786 16.0638 39.332 16.3242C39.8854 16.5521 40.4225 16.8939 40.9434 17.3496C41.4642 17.7728 41.806 18.2936 41.9688 18.9121C42.1641 19.6283 42.2292 20.5723 42.1641 21.7441C42.1315 22.916 42.0501 24.1204 41.9199 25.3574C41.8223 26.5944 41.7409 27.7663 41.6758 28.873C41.6107 29.9798 41.6758 30.8262 41.8711 31.4121C41.9362 31.7376 42.0339 32.0306 42.1641 32.291C42.2292 32.5514 42.3105 32.7956 42.4082 33.0234C42.5384 33.2188 42.6686 33.3652 42.7988 33.4629C42.0176 33.821 41.3828 34.0814 40.8945 34.2441C40.4062 34.4069 40.0319 34.5208 39.7715 34.5859C39.446 34.6836 39.2181 34.7161 39.0879 34.6836C38.7949 34.5859 38.5345 34.3418 38.3066 33.9512C38.1113 33.5605 37.9323 32.9421 37.7695 32.0957C37.7044 31.8353 37.6719 31.4121 37.6719 30.8262C37.7044 30.2077 37.7533 29.5241 37.8184 28.7754C37.8835 27.9941 37.9486 27.1966 38.0137 26.3828C38.1113 25.5365 38.1764 24.7552 38.209 24.0391C38.2741 23.2904 38.3229 22.6556 38.3555 22.1348C38.388 21.5814 38.388 21.207 38.3555 21.0117C38.1927 20.4258 37.9648 20.0189 37.6719 19.791C37.3789 19.5306 37.151 19.498 36.9883 19.6934C36.5651 20.1816 36.1094 20.9792 35.6211 22.0859C35.1654 23.1602 34.7259 24.3483 34.3027 25.6504C33.8796 26.9199 33.5215 28.1895 33.2285 29.459C32.9355 30.7285 32.7565 31.8027 32.6914 32.6816ZM61.5 2.99414C61.5 3.35221 61.4674 4.05208 61.4023 5.09375C61.3372 6.13542 61.2559 7.38867 61.1582 8.85352C61.0605 10.3184 60.9629 11.9297 60.8652 13.6875C60.7676 15.4453 60.6862 17.2357 60.6211 19.0586C60.556 20.8815 60.4909 22.5905 60.4258 24.1855C60.3932 25.748 60.377 27.1478 60.377 28.3848C60.4095 29.6217 60.4746 30.6634 60.5723 31.5098C60.6699 32.3236 60.8164 32.877 61.0117 33.1699L58.8145 34C58.6517 34.0651 58.4564 34.0977 58.2285 34.0977C58.0007 34.0977 57.7565 34.0326 57.4961 33.9023C57.2682 33.7721 57.0729 33.5443 56.9102 33.2188C56.7474 32.8932 56.666 32.4375 56.666 31.8516C56.666 31.6237 56.666 31.347 56.666 31.0215C56.6986 30.6634 56.7148 30.2565 56.7148 29.8008C56.3242 30.4518 55.901 31.0866 55.4453 31.7051C54.9896 32.3236 54.485 32.8607 53.9316 33.3164C53.4108 33.7721 52.8411 34.1302 52.2227 34.3906C51.6042 34.6836 50.9531 34.8301 50.2695 34.8301C49.6185 34.8301 48.9837 34.6836 48.3652 34.3906C47.7467 34.1302 47.1934 33.7233 46.7051 33.1699C46.2168 32.6165 45.8099 31.9004 45.4844 31.0215C45.1914 30.1426 45.0449 29.0846 45.0449 27.8477C45.0449 25.6016 45.3053 23.6484 45.8262 21.9883C46.347 20.2956 46.998 18.8958 47.7793 17.7891C48.5931 16.6497 49.4557 15.8034 50.3672 15.25C51.3112 14.6641 52.1738 14.3711 52.9551 14.3711C54.1595 14.3711 55.0872 14.6966 55.7383 15.3477C56.3893 15.9661 56.8613 16.6172 57.1543 17.3008C57.1868 16.3568 57.2031 15.4779 57.2031 14.6641C57.2357 13.8177 57.252 13.1016 57.252 12.5156C57.252 10.1068 57.2031 7.95833 57.1055 6.07031C57.0078 4.18229 56.7637 2.75 56.373 1.77344C56.8288 1.51302 57.2357 1.31771 57.5938 1.1875C57.9844 1.05729 58.3262 0.959635 58.6191 0.894531C58.9772 0.796875 59.2865 0.748047 59.5469 0.748047C60.263 0.748047 60.7676 0.959635 61.0605 1.38281C61.3535 1.77344 61.5 2.31055 61.5 2.99414ZM56.8613 25.6504C56.9264 24.804 56.959 23.9251 56.959 23.0137C56.9915 22.0697 57.0241 21.1257 57.0566 20.1816C56.8288 20.5397 56.5521 20.849 56.2266 21.1094C55.9336 21.3698 55.6081 21.4349 55.25 21.3047C55.3802 20.3281 55.3639 19.5794 55.2012 19.0586C55.071 18.5378 54.8757 18.1471 54.6152 17.8867C54.3223 17.5938 53.9805 17.431 53.5898 17.3984C53.0039 17.3984 52.418 17.724 51.832 18.375C51.2786 19.026 50.7741 19.8398 50.3184 20.8164C49.8952 21.7604 49.5534 22.7858 49.293 23.8926C49.0326 24.9668 48.9023 25.9596 48.9023 26.8711C48.9023 28.694 49.1465 29.9635 49.6348 30.6797C50.1556 31.3958 50.709 31.7539 51.2949 31.7539C51.7832 31.7539 52.2878 31.5586 52.8086 31.168C53.362 30.7773 53.8828 30.2728 54.3711 29.6543C54.8919 29.0358 55.3639 28.3848 55.7871 27.7012C56.2428 26.985 56.6009 26.3014 56.8613 25.6504ZM64.625 16.7148C64.625 16.5195 64.8854 16.3079 65.4062 16.0801C65.9271 15.8522 66.4967 15.6732 67.1152 15.543C67.7663 15.3802 68.3522 15.2988 68.873 15.2988C69.4264 15.2663 69.7031 15.3802 69.7031 15.6406C69.7031 16.1289 69.6706 16.8288 69.6055 17.7402C69.5404 18.6191 69.459 19.5632 69.3613 20.5723C69.2637 21.5488 69.166 22.5417 69.0684 23.5508C68.9707 24.5273 68.9056 25.3574 68.873 26.041C68.8079 26.7572 68.7428 27.5384 68.6777 28.3848C68.6126 29.1009 68.5638 29.8984 68.5312 30.7773C68.4987 31.6562 68.4987 32.5514 68.5312 33.4629C68.5312 33.6257 68.3685 33.7884 68.043 33.9512C67.7174 34.1139 67.3594 34.2279 66.9688 34.293C66.5781 34.3906 66.2038 34.4395 65.8457 34.4395C65.4876 34.4395 65.2923 34.3743 65.2598 34.2441C65.1947 34.1139 65.1296 33.8861 65.0645 33.5605C64.9993 33.235 64.9342 32.7793 64.8691 32.1934C64.804 31.5749 64.7552 30.7936 64.7227 29.8496C64.6901 28.873 64.7064 27.7012 64.7715 26.334C64.9017 23.6322 64.918 21.5488 64.8203 20.084C64.7227 18.5866 64.6576 17.4635 64.625 16.7148ZM68.043 6.99805C68.694 6.99805 69.3125 7.19336 69.8984 7.58398C70.4844 7.97461 70.7773 8.49544 70.7773 9.14648C70.7773 9.63477 70.6471 10.1068 70.3867 10.5625C70.1589 11.0182 69.8659 11.4251 69.5078 11.7832C69.1497 12.1413 68.7428 12.4342 68.2871 12.6621C67.8314 12.8574 67.4082 12.9551 67.0176 12.9551C66.4967 12.9551 66.0736 12.8737 65.748 12.7109C65.4225 12.5156 65.1621 12.304 64.9668 12.0762C64.804 11.8158 64.6901 11.5391 64.625 11.2461C64.5599 10.9531 64.5273 10.6764 64.5273 10.416C64.5273 10.0905 64.5762 9.73242 64.6738 9.3418C64.7715 8.91862 64.9505 8.54427 65.2109 8.21875C65.4714 7.86068 65.8294 7.56771 66.2852 7.33984C66.7409 7.11198 67.3268 6.99805 68.043 6.99805ZM66.8223 11.5391C67.0176 11.5391 67.2292 11.474 67.457 11.3438C67.7174 11.181 67.9453 11.002 68.1406 10.8066C68.3685 10.6113 68.5475 10.3997 68.6777 10.1719C68.8405 9.94401 68.9219 9.7487 68.9219 9.58594C68.9219 9.32552 68.7917 9.19531 68.5312 9.19531C68.3685 9.19531 68.1569 9.26042 67.8965 9.39062C67.6686 9.52083 67.4408 9.68359 67.2129 9.87891C66.985 10.0417 66.7897 10.237 66.627 10.4648C66.4967 10.6602 66.4316 10.8555 66.4316 11.0508C66.4316 11.3763 66.5618 11.5391 66.8223 11.5391ZM86.3047 19.0098C86.3047 19.4655 86.1745 19.9375 85.9141 20.4258C85.6862 20.8815 85.3932 21.321 85.0352 21.7441C84.6771 22.1673 84.2702 22.5417 83.8145 22.8672C83.3913 23.1602 82.9844 23.3392 82.5938 23.4043C82.8542 22.3952 82.9355 21.6139 82.8379 21.0605C82.7402 20.5072 82.5775 20.1003 82.3496 19.8398C82.0892 19.5469 81.7637 19.3841 81.373 19.3516C80.7871 19.3516 80.2174 19.6934 79.6641 20.377C79.1432 21.028 78.6875 21.8418 78.2969 22.8184C77.9062 23.7624 77.597 24.7878 77.3691 25.8945C77.1413 26.9688 77.0273 27.9453 77.0273 28.8242C76.9948 29.4427 77.0111 30.0449 77.0762 30.6309C77.1087 31.1191 77.1576 31.6237 77.2227 32.1445C77.3203 32.6654 77.4505 33.0723 77.6133 33.3652C77.418 33.528 77.0924 33.7233 76.6367 33.9512C76.2135 34.179 75.7578 34.3255 75.2695 34.3906C74.8138 34.4557 74.3906 34.3743 74 34.1465C73.6419 33.9186 73.4466 33.4303 73.4141 32.6816C73.349 31.9655 73.3001 31.168 73.2676 30.2891C73.2676 29.3776 73.2676 28.4824 73.2676 27.6035C73.3001 26.6921 73.3327 25.7969 73.3652 24.918C73.3978 24.0391 73.4466 23.2253 73.5117 22.4766C73.5768 21.0443 73.6094 19.9375 73.6094 19.1562C73.6094 18.375 73.5931 17.6263 73.5605 16.9102C73.5605 16.7799 73.7721 16.6009 74.1953 16.373C74.651 16.1126 75.1393 15.8848 75.6602 15.6895C76.2135 15.4941 76.7181 15.3802 77.1738 15.3477C77.6296 15.3151 77.8574 15.4128 77.8574 15.6406C77.8574 15.9987 77.8086 16.7148 77.7109 17.7891C77.6458 18.8307 77.5482 19.9212 77.418 21.0605C77.6458 20.4421 77.9388 19.7747 78.2969 19.0586C78.6875 18.3424 79.127 17.6751 79.6152 17.0566C80.1035 16.4382 80.6569 15.9336 81.2754 15.543C81.8939 15.1198 82.5775 14.9082 83.3262 14.9082C83.9121 14.9082 84.3841 15.0872 84.7422 15.4453C85.1328 15.8034 85.4421 16.2103 85.6699 16.666C85.8978 17.1217 86.0605 17.5775 86.1582 18.0332C86.2559 18.4889 86.3047 18.8145 86.3047 19.0098ZM101.979 31.5098C102.044 31.7376 102.141 31.9492 102.271 32.1445C102.369 32.3073 102.499 32.4701 102.662 32.6328C102.857 32.763 103.085 32.8444 103.346 32.877C103.118 33.3327 102.89 33.6419 102.662 33.8047C102.532 33.9023 102.418 33.9674 102.32 34C102.027 34.0977 101.588 34.1465 101.002 34.1465C100.416 34.1465 99.8464 33.9674 99.293 33.6094C99.0977 33.4466 98.9186 33.2025 98.7559 32.877C98.5931 32.6165 98.4466 32.2585 98.3164 31.8027C98.2188 31.3145 98.1374 30.696 98.0723 29.9473C97.6165 30.9238 97.0957 31.7051 96.5098 32.291C95.9564 32.8444 95.403 33.2513 94.8496 33.5117C94.2311 33.8698 93.5964 34.0814 92.9453 34.1465C92.1315 34.2116 91.3503 34.0814 90.6016 33.7559C89.8854 33.3978 89.2669 32.877 88.7461 32.1934C88.2578 31.4772 87.8835 30.6146 87.623 29.6055C87.3626 28.5964 87.2812 27.457 87.3789 26.1875C87.4766 24.8529 87.737 23.6647 88.1602 22.623C88.5833 21.5814 89.0879 20.6536 89.6738 19.8398C90.2598 19.026 90.8783 18.3424 91.5293 17.7891C92.1803 17.2031 92.7988 16.7311 93.3848 16.373C94.0033 15.9824 94.5241 15.7057 94.9473 15.543C95.403 15.3477 95.696 15.2337 95.8262 15.2012C96.1842 15.1035 96.4935 15.071 96.7539 15.1035C97.0143 15.1361 97.2422 15.2826 97.4375 15.543C97.5026 15.6406 97.584 15.7546 97.6816 15.8848C97.7467 16.015 97.8281 16.194 97.9258 16.4219C98.0234 16.6172 98.1048 16.8451 98.1699 17.1055C97.3887 17.4635 96.6562 17.8704 95.9727 18.3262C95.2891 18.7493 94.6543 19.2702 94.0684 19.8887C93.515 20.5072 93.0267 21.2559 92.6035 22.1348C92.1803 23.0137 91.8548 24.0879 91.627 25.3574C91.3014 26.9525 91.3828 28.2383 91.8711 29.2148C92.3919 30.1914 93.0918 30.5983 93.9707 30.4355C94.4915 30.2728 94.9961 29.9635 95.4844 29.5078C95.9076 29.1172 96.347 28.5312 96.8027 27.75C97.291 26.9688 97.7467 25.8945 98.1699 24.5273C98.3327 22.5742 98.4629 21.0443 98.5605 19.9375C98.6908 18.7982 98.8047 17.9355 98.9023 17.3496C99.0326 16.666 99.1302 16.2103 99.1953 15.9824C99.293 15.8197 99.4883 15.6732 99.7812 15.543C100.074 15.3802 100.4 15.25 100.758 15.1523C101.116 15.0547 101.441 15.0059 101.734 15.0059C102.027 14.9733 102.223 14.9733 102.32 15.0059C102.385 15.0384 102.418 15.4453 102.418 16.2266C102.418 16.9753 102.385 17.9355 102.32 19.1074C102.288 20.2467 102.239 21.5 102.174 22.8672C102.109 24.2018 102.044 25.4714 101.979 26.6758C101.946 27.8802 101.913 28.9382 101.881 29.8496C101.881 30.7285 101.913 31.2819 101.979 31.5098Z" fill="white"/>
</svg>
