<svg width="30" height="30" viewBox="0 0 30 30" fill="none" xmlns="http://www.w3.org/2000/svg">
<path fill-rule="evenodd" clip-rule="evenodd" d="M28.125 15.0002C28.125 14.7516 28.0262 14.5131 27.8504 14.3373C27.6746 14.1615 27.4361 14.0627 27.1875 14.0627H5.07559L10.9762 8.16396C11.0634 8.07679 11.1325 7.97331 11.1797 7.85943C11.2269 7.74554 11.2512 7.62348 11.2512 7.50021C11.2512 7.37694 11.2269 7.25488 11.1797 7.14099C11.1325 7.0271 11.0634 6.92362 10.9762 6.83646C10.8891 6.74929 10.7856 6.68015 10.6717 6.63298C10.5578 6.5858 10.4357 6.56152 10.3125 6.56152C10.1892 6.56152 10.0671 6.5858 9.95325 6.63298C9.83936 6.68015 9.73588 6.74929 9.64872 6.83646L2.14872 14.3365C2.06141 14.4235 1.99214 14.527 1.94488 14.6409C1.89762 14.7548 1.87329 14.8769 1.87329 15.0002C1.87329 15.1235 1.89762 15.2456 1.94488 15.3595C1.99214 15.4734 2.06141 15.5769 2.14872 15.664L9.64872 23.164C9.73588 23.2511 9.83936 23.3203 9.95325 23.3674C10.0671 23.4146 10.1892 23.4389 10.3125 23.4389C10.4357 23.4389 10.5578 23.4146 10.6717 23.3674C10.7856 23.3203 10.8891 23.2511 10.9762 23.164C11.0634 23.0768 11.1325 22.9733 11.1797 22.8594C11.2269 22.7455 11.2512 22.6235 11.2512 22.5002C11.2512 22.3769 11.2269 22.2549 11.1797 22.141C11.1325 22.0271 11.0634 21.9236 10.9762 21.8365L5.07559 15.9377H27.1875C27.4361 15.9377 27.6746 15.8389 27.8504 15.6631C28.0262 15.4873 28.125 15.2488 28.125 15.0002Z" fill="black"/>
</svg>
