<svg width="24" height="24" viewBox="0 0 24 24" fill="none" xmlns="http://www.w3.org/2000/svg">
<rect width="24" height="24" rx="1" fill="white"/>
<path d="M13.0601 12L17.4801 7.57999C17.5538 7.51133 17.6129 7.42853 17.6539 7.33653C17.6949 7.24453 17.7169 7.14521 17.7187 7.04451C17.7205 6.94381 17.702 6.84378 17.6642 6.75039C17.6265 6.657 17.5704 6.57217 17.4992 6.50095C17.4279 6.42973 17.3431 6.37359 17.2497 6.33587C17.1563 6.29815 17.0563 6.27962 16.9556 6.2814C16.8549 6.28317 16.7556 6.30522 16.6636 6.34621C16.5716 6.3872 16.4888 6.4463 16.4201 6.51999L12.0001 10.94L7.58012 6.51999C7.43795 6.38751 7.2499 6.31539 7.0556 6.31881C6.8613 6.32224 6.67591 6.40095 6.5385 6.53837C6.40109 6.67578 6.32237 6.86117 6.31895 7.05547C6.31552 7.24977 6.38764 7.43781 6.52012 7.57999L10.9401 12L6.52012 16.42C6.37967 16.5606 6.30078 16.7512 6.30078 16.95C6.30078 17.1487 6.37967 17.3394 6.52012 17.48C6.66075 17.6204 6.85137 17.6993 7.05012 17.6993C7.24887 17.6993 7.4395 17.6204 7.58012 17.48L12.0001 13.06L16.4201 17.48C16.5607 17.6204 16.7514 17.6993 16.9501 17.6993C17.1489 17.6993 17.3395 17.6204 17.4801 17.48C17.6206 17.3394 17.6995 17.1487 17.6995 16.95C17.6995 16.7512 17.6206 16.5606 17.4801 16.42L13.0601 12Z" fill="black"/>
</svg>
