<svg width="27" height="27" viewBox="0 0 27 27" fill="none" xmlns="http://www.w3.org/2000/svg">
<rect width="27" height="27" fill="#F5F5F5"/>
<g id="Product Page" clip-path="url(#clip0_0_1)">
<rect width="1440" height="4060" transform="translate(-1281 -3862)" fill="#F1F0F0"/>
<g id="Frame 1000004041">
<rect width="1440" height="420.58" transform="translate(-1281 -223)" fill="#012850"/>
<g id="Frame 1000003966">
<g id="Frame 1000003965">
<g id="Frame 1000003963">
<g id="face.14f4754890c951bd53439ed1cab6ee41.svg" clip-path="url(#clip1_0_1)">
<path id="Vector" d="M13.5 27C20.9558 27 27 20.9558 27 13.5C27 6.04416 20.9558 0 13.5 0C6.04416 0 0 6.04416 0 13.5C0 20.9558 6.04416 27 13.5 27Z" fill="white"/>
<path id="Vector_2" d="M16.1324 7.9612H17.6466V5.32407C17.3854 5.28813 16.487 5.20728 15.4407 5.20728C10.6502 5.20728 11.9535 10.6322 11.7628 11.4269H9.35303V14.375H11.7621V21.793H14.7158V14.3757H17.0274L17.3943 11.4276H14.7151C14.845 9.47605 14.1892 7.9612 16.1324 7.9612Z" fill="#012850"/>
</g>
</g>
</g>
</g>
</g>
</g>
<defs>
<clipPath id="clip0_0_1">
<rect width="1440" height="4060" fill="white" transform="translate(-1281 -3862)"/>
</clipPath>
<clipPath id="clip1_0_1">
<rect width="27" height="27" fill="white"/>
</clipPath>
</defs>
</svg>
