<svg width="27" height="27" viewBox="0 0 27 27" fill="none" xmlns="http://www.w3.org/2000/svg">
<g clip-path="url(#clip0_230_903)">
<path fill-rule="evenodd" clip-rule="evenodd" d="M13.5 0C20.9508 0 27 6.04916 27 13.5C27 20.9508 20.9508 27 13.5 27C6.04916 27 0 20.9508 0 13.5C0 6.04916 6.04916 0 13.5 0ZM13.5 5.0625C11.2085 5.0625 10.9212 5.07221 10.0212 5.11328C9.12315 5.15426 8.50978 5.29691 7.9731 5.50547C7.41825 5.7211 6.9477 6.00961 6.47863 6.47868C6.00956 6.94776 5.72105 7.4183 5.50542 7.9731C5.29685 8.50978 5.15426 9.12315 5.11323 10.0212C5.0722 10.9212 5.0625 11.2085 5.0625 13.5C5.0625 15.7915 5.0722 16.0788 5.11323 16.9788C5.15426 17.8769 5.29685 18.4902 5.50542 19.0269C5.72105 19.5817 6.00956 20.0523 6.47863 20.5214C6.9477 20.9904 7.41825 21.2789 7.9731 21.4945C8.50978 21.7031 9.12315 21.8458 10.0212 21.8867C10.9212 21.9278 11.2085 21.9375 13.5 21.9375C15.7915 21.9375 16.0788 21.9278 16.9788 21.8867C17.8769 21.8458 18.4902 21.7031 19.0269 21.4945C19.5817 21.2789 20.0523 20.9904 20.5214 20.5214C20.9904 20.0523 21.2789 19.5817 21.4945 19.0269C21.7031 18.4902 21.8458 17.8769 21.8867 16.9788C21.9278 16.0788 21.9375 15.7915 21.9375 13.5C21.9375 11.2085 21.9278 10.9212 21.8867 10.0212C21.8458 9.12315 21.7031 8.50978 21.4945 7.9731C21.2789 7.4183 20.9904 6.94776 20.5214 6.47868C20.0523 6.00961 19.5817 5.7211 19.0269 5.50547C18.4902 5.29691 17.8769 5.15426 16.9788 5.11328C16.0788 5.07221 15.7915 5.0625 13.5 5.0625ZM13.5 6.58278C15.7529 6.58278 16.0197 6.59138 16.9095 6.63198C17.7321 6.66952 18.1789 6.80695 18.4762 6.92249C18.8701 7.07553 19.1511 7.25841 19.4463 7.55367C19.7416 7.8489 19.9245 8.13001 20.0775 8.52382C20.1931 8.82113 20.3305 9.26787 20.368 10.0905C20.4086 10.9803 20.4172 11.2471 20.4172 13.5C20.4172 15.7529 20.4086 16.0197 20.368 16.9095C20.3305 17.7321 20.1931 18.1789 20.0775 18.4762C19.9245 18.8701 19.7416 19.1511 19.4463 19.4463C19.1511 19.7416 18.8701 19.9245 18.4762 20.0775C18.1789 20.1931 17.7321 20.3305 16.9095 20.368C16.0199 20.4086 15.7531 20.4172 13.5 20.4172C11.2469 20.4172 10.9801 20.4086 10.0905 20.368C9.26787 20.3305 8.82113 20.1931 8.52382 20.0775C8.12993 19.9245 7.8489 19.7416 7.55362 19.4463C7.25836 19.1511 7.07553 18.8701 6.92249 18.4762C6.80695 18.1789 6.66948 17.7321 6.63193 16.9095C6.59132 16.0197 6.58278 15.7529 6.58278 13.5C6.58278 11.2471 6.59132 10.9803 6.63193 10.0905C6.66948 9.26787 6.80695 8.82113 6.92249 8.52382C7.07553 8.13001 7.25836 7.8489 7.55362 7.55367C7.8489 7.25841 8.12993 7.07553 8.52382 6.92249C8.82113 6.80695 9.26787 6.66952 10.0905 6.63198C10.9803 6.59138 11.2471 6.58278 13.5 6.58278ZM13.5 9.16727C11.1071 9.16727 9.16727 11.1071 9.16727 13.5C9.16727 15.8929 11.1071 17.8327 13.5 17.8327C15.8929 17.8327 17.8327 15.8929 17.8327 13.5C17.8327 11.1071 15.8929 9.16727 13.5 9.16727ZM13.5 16.3125C11.9467 16.3125 10.6875 15.0533 10.6875 13.5C10.6875 11.9467 11.9467 10.6875 13.5 10.6875C15.0533 10.6875 16.3125 11.9467 16.3125 13.5C16.3125 15.0533 15.0533 16.3125 13.5 16.3125ZM19.0165 8.99609C19.0165 9.55522 18.5631 10.0085 18.0039 10.0085C17.4448 10.0085 16.9915 9.55522 16.9915 8.99609C16.9915 8.43688 17.4448 7.98359 18.0039 7.98359C18.5631 7.98359 19.0165 8.43688 19.0165 8.99609Z" fill="white"/>
</g>
<defs>
<clipPath id="clip0_230_903">
<rect width="27" height="27" fill="white"/>
</clipPath>
</defs>
</svg>
