<svg width="27" height="27" viewBox="0 0 27 27" fill="none" xmlns="http://www.w3.org/2000/svg">
<g clip-path="url(#clip0_230_894)">
<path d="M27 13.5C27 20.9559 20.9559 27 13.5 27C6.04416 27 0 20.9559 0 13.5C0 6.04416 6.04416 0 13.5 0C20.9559 0 27 6.04416 27 13.5Z" fill="white"/>
<mask id="mask0_230_894" style="mask-type:luminance" maskUnits="userSpaceOnUse" x="7" y="7" width="13" height="13">
<path d="M19.2858 7.7146H7.71436V19.286H19.2858V7.7146Z" fill="white"/>
</mask>
<g mask="url(#mask0_230_894)">
<path d="M19.283 19.2857L19.2858 19.2852V15.0414C19.2858 12.9653 18.8389 11.366 16.4118 11.366C15.245 11.366 14.462 12.0063 14.1423 12.6133H14.1086V11.5598H11.8074V19.2852H14.2036V15.4599C14.2036 14.4527 14.3945 13.4788 15.6418 13.4788C16.8708 13.4788 16.8892 14.6282 16.8892 15.5245V19.2857H19.283Z" fill="#012850"/>
<path d="M7.90479 11.5608H10.3039V19.2862H7.90479V11.5608Z" fill="#012850"/>
<path d="M9.10393 7.7146C8.33682 7.7146 7.71436 8.33707 7.71436 9.10417C7.71436 9.87121 8.33682 10.5067 9.10393 10.5067C9.87096 10.5067 10.4934 9.87121 10.4934 9.10417C10.493 8.33707 9.8705 7.7146 9.10393 7.7146Z" fill="#012850"/>
</g>
</g>
<defs>
<clipPath id="clip0_230_894">
<rect width="27" height="27" fill="white"/>
</clipPath>
</defs>
</svg>
