<svg width="65" height="14" viewBox="0 0 65 14" fill="none" xmlns="http://www.w3.org/2000/svg">
<g clip-path="url(#clip0_230_914)">
<path d="M13.9744 1.45215H8.02588V12.1277H13.9744V1.45215Z" fill="#FF5F00"/>
<path d="M8.40305 6.78974C8.40305 4.71498 9.36614 2.73453 10.9902 1.45195C8.04425 -0.86801 3.77644 -0.358751 1.4537 2.6025C-0.869051 5.54488 -0.359179 9.80757 2.60563 12.1275C5.07945 14.0703 8.53524 14.0703 11.0091 12.1275C9.36614 10.845 8.40305 8.8645 8.40305 6.78974Z" fill="#EB001B"/>
<path d="M21.9998 6.78998C21.9998 10.5434 18.9595 13.5801 15.2016 13.5801C13.6719 13.5801 12.199 13.0708 11.0093 12.1278C13.9552 9.80782 14.4651 5.54513 12.1423 2.58388C11.8024 2.16893 11.4247 1.77284 11.0093 1.45219C13.9552 -0.867766 18.2419 -0.358507 20.5458 2.60274C21.49 3.79101 21.9998 5.26221 21.9998 6.78998Z" fill="#F79E1B"/>
<path d="M21.3578 10.9962V10.7699H21.4522V10.7322H21.2256V10.7699H21.32V10.9962H21.3578ZM21.7921 10.9962V10.7322H21.7166L21.641 10.9208L21.5655 10.7322H21.49V10.9962H21.5466V10.7888L21.6222 10.9585H21.6788L21.7543 10.7888V10.9962H21.7921Z" fill="#F79E1B"/>
</g>
<g clip-path="url(#clip1_230_914)">
<path d="M51.7587 0.646729C49.064 0.646729 46.6447 2.04885 46.6447 4.62183C46.6447 7.58508 50.9184 7.78745 50.9184 9.26185C50.9184 9.88341 50.1941 10.4472 48.9771 10.4472C47.2387 10.4472 45.9348 9.66659 45.9348 9.66659L45.3843 12.2685C45.3843 12.2685 46.8765 12.9334 48.8757 12.9334C51.8311 12.9334 54.1491 11.4735 54.1491 8.84266C54.1491 5.7204 49.8608 5.51803 49.8608 4.14481C49.8608 3.65335 50.4548 3.11852 51.6718 3.11852C53.048 3.11852 54.178 3.68226 54.178 3.68226L54.7286 1.16711C54.7141 1.16711 53.4827 0.646729 51.7587 0.646729ZM27.0724 0.834642L27 1.21047C27 1.21047 28.13 1.41284 29.1586 1.83203C30.4769 2.30904 30.5639 2.58369 30.7957 3.43652L33.215 12.731H36.4602L41.4293 0.834642H38.1986L34.997 8.92939L33.6931 2.06331C33.5772 1.28274 32.9687 0.834642 32.2154 0.834642H27.0724ZM42.7331 0.834642L40.1979 12.731H43.2836L45.8044 0.834642H42.7331ZM59.915 0.834642C59.1761 0.834642 58.785 1.22492 58.4952 1.91876L53.9752 12.731H57.2059L57.8288 10.9242H61.7694L62.146 12.731H65L62.5227 0.834642H59.915ZM60.3351 4.05809L61.2913 8.52465H58.727L60.3351 4.05809Z" fill="white"/>
</g>
<defs>
<clipPath id="clip0_230_914">
<rect width="22" height="13.5802" fill="white"/>
</clipPath>
<clipPath id="clip1_230_914">
<rect width="38" height="12.2867" fill="white" transform="translate(27 0.646729)"/>
</clipPath>
</defs>
</svg>
