<svg width="27" height="27" viewBox="0 0 27 27" fill="none" xmlns="http://www.w3.org/2000/svg">
<g clip-path="url(#clip0_230_907)">
<path d="M27 13.5C27 20.9559 20.9559 27 13.5 27C6.04416 27 0 20.9559 0 13.5C0 6.04416 6.04416 0 13.5 0C20.9559 0 27 6.04416 27 13.5Z" fill="white"/>
<path d="M20.4428 9.19454C19.9264 9.42103 19.3763 9.57115 18.8026 9.64405C19.3927 9.29174 19.8431 8.73801 20.0549 8.07064C19.5047 8.39866 18.8972 8.63039 18.2497 8.75976C17.7273 8.20341 16.9827 7.85889 16.1704 7.85889C14.5943 7.85889 13.3256 9.13815 13.3256 10.7063C13.3256 10.9319 13.3446 11.149 13.3915 11.3555C11.0249 11.2401 8.93074 10.1057 7.52392 8.3779C7.27832 8.80396 7.13426 9.29174 7.13426 9.81677C7.13426 10.8027 7.64195 11.6766 8.39868 12.1825C7.94138 12.1739 7.49268 12.0411 7.11256 11.8319C7.11256 11.8406 7.11256 11.8519 7.11256 11.8631C7.11256 13.2465 8.09929 14.3956 9.39329 14.6603C9.16155 14.7236 8.90906 14.754 8.64693 14.754C8.46472 14.754 8.28073 14.7436 8.10801 14.7054C8.47683 15.8328 9.5235 16.6616 10.768 16.6884C9.79944 17.4461 8.56971 17.9026 7.2384 17.9026C7.00494 17.9026 6.78104 17.8922 6.55713 17.8635C7.81811 18.6767 9.31259 19.141 10.9242 19.141C16.1626 19.141 19.0265 14.8017 19.0265 11.0404C19.0265 10.9146 19.0222 10.7931 19.0161 10.6725C19.5811 10.2715 20.0558 9.7708 20.4428 9.19454Z" fill="#012850"/>
</g>
<defs>
<clipPath id="clip0_230_907">
<rect width="27" height="27" fill="white"/>
</clipPath>
</defs>
</svg>
