<svg width="27" height="27" viewBox="0 0 27 27" fill="none" xmlns="http://www.w3.org/2000/svg">
<g clip-path="url(#clip0_230_905)">
<path fill-rule="evenodd" clip-rule="evenodd" d="M13.5 0C20.9508 0 27 6.04916 27 13.5C27 20.9508 20.9508 27 13.5 27C6.04916 27 0 20.9508 0 13.5C0 6.04916 6.04916 0 13.5 0ZM21.585 9.43827C21.3909 8.71221 20.8192 8.1405 20.0931 7.94641C18.777 7.59375 13.5 7.59375 13.5 7.59375C13.5 7.59375 8.22304 7.59375 6.90689 7.94641C6.18099 8.1405 5.60909 8.71221 5.41503 9.43827C5.0625 10.7543 5.0625 13.5001 5.0625 13.5001C5.0625 13.5001 5.0625 16.2458 5.41503 17.5617C5.60909 18.2878 6.18099 18.8597 6.90689 19.0537C8.22304 19.4062 13.5 19.4062 13.5 19.4062C13.5 19.4062 18.777 19.4062 20.0931 19.0537C20.8192 18.8597 21.3909 18.2878 21.585 17.5617C21.9375 16.2458 21.9375 13.5001 21.9375 13.5001C21.9375 13.5001 21.9375 10.7543 21.585 9.43827ZM11.8124 16.0314V10.9688L16.1966 13.5001L11.8124 16.0314Z" fill="white"/>
</g>
<defs>
<clipPath id="clip0_230_905">
<rect width="27" height="27" fill="white"/>
</clipPath>
</defs>
</svg>
